<mxfile host="65bd71144e">
    <diagram id="II1ClBNhrcPUSJ9gN-nK" name="Page-1">
        <mxGraphModel dx="280" dy="447" grid="1" gridSize="10" guides="1" tooltips="1" connect="1" arrows="1" fold="1" page="1" pageScale="1" pageWidth="850" pageHeight="1100" background="#ffffff" math="0" shadow="0">
            <root>
                <mxCell id="0"/>
                <mxCell id="1" parent="0"/>
                <mxCell id="2" value="" style="shape=actor;whiteSpace=wrap;html=1;fillColor=none;strokeColor=#000000;" vertex="1" parent="1">
                    <mxGeometry x="60" y="265" width="60" height="70" as="geometry"/>
                </mxCell>
                <mxCell id="3" value="" style="whiteSpace=wrap;html=1;strokeColor=#001DBC;fillColor=none;fontColor=#ffffff;dashed=1;" vertex="1" parent="1">
                    <mxGeometry x="160" y="160" width="520" height="320" as="geometry"/>
                </mxCell>
                <mxCell id="4" value="&lt;font color=&quot;#000000&quot;&gt;Azure&lt;/font&gt;" style="text;html=1;align=center;verticalAlign=middle;resizable=0;points=[];autosize=1;strokeColor=none;fillColor=none;" vertex="1" parent="1">
                    <mxGeometry x="160" y="160" width="50" height="30" as="geometry"/>
                </mxCell>
                <mxCell id="5" value="" style="whiteSpace=wrap;html=1;dashed=1;strokeColor=#23445d;fillColor=#bac8d3;" vertex="1" parent="1">
                    <mxGeometry x="200" y="410" width="440" height="50" as="geometry"/>
                </mxCell>
                <mxCell id="6" value="" style="aspect=fixed;html=1;points=[];align=center;image;fontSize=12;image=img/lib/azure2/storage/Storage_Accounts.svg;dashed=1;strokeColor=#0000CC;fontColor=#000000;fillColor=none;" vertex="1" parent="1">
                    <mxGeometry x="401.25" y="420" width="37.5" height="30" as="geometry"/>
                </mxCell>
                <mxCell id="7" value="" style="whiteSpace=wrap;html=1;dashed=1;strokeColor=#10739e;fillColor=#b1ddf0;" vertex="1" parent="1">
                    <mxGeometry x="200" y="200" width="440" height="200" as="geometry"/>
                </mxCell>
                <mxCell id="8" value="" style="aspect=fixed;html=1;points=[];align=center;image;fontSize=12;image=img/lib/azure2/app_services/App_Service_Plans.svg;dashed=1;strokeColor=#0000CC;fontColor=#000000;fillColor=none;" vertex="1" parent="1">
                    <mxGeometry x="210" y="360" width="31" height="31" as="geometry"/>
                </mxCell>
                <mxCell id="13" style="edgeStyle=none;html=1;strokeColor=#000000;fontColor=#000000;" edge="1" parent="1" source="9" target="10">
                    <mxGeometry relative="1" as="geometry"/>
                </mxCell>
                <mxCell id="14" value="HTTP POST&lt;br&gt;Body: [DataModel]" style="edgeLabel;html=1;align=center;verticalAlign=middle;resizable=0;points=[];fontColor=#000000;" vertex="1" connectable="0" parent="13">
                    <mxGeometry x="0.1231" relative="1" as="geometry">
                        <mxPoint x="-13" y="-20" as="offset"/>
                    </mxGeometry>
                </mxCell>
                <mxCell id="9" value="Sender" style="aspect=fixed;html=1;points=[];align=center;image;fontSize=12;image=img/lib/azure2/compute/Function_Apps.svg;dashed=1;strokeColor=#000000;fontColor=#000000;fillColor=none;" vertex="1" parent="1">
                    <mxGeometry x="270" y="270" width="68" height="60" as="geometry"/>
                </mxCell>
                <mxCell id="10" value="Receiver" style="aspect=fixed;html=1;points=[];align=center;image;fontSize=12;image=img/lib/azure2/compute/Function_Apps.svg;dashed=1;strokeColor=#000000;fontColor=#000000;fillColor=none;" vertex="1" parent="1">
                    <mxGeometry x="490" y="270" width="68" height="60" as="geometry"/>
                </mxCell>
                <mxCell id="11" style="edgeStyle=none;html=1;fontColor=#000000;strokeColor=#000000;" edge="1" parent="1" source="2" target="9">
                    <mxGeometry relative="1" as="geometry"/>
                </mxCell>
                <mxCell id="12" value="HTTP GET" style="edgeLabel;html=1;align=center;verticalAlign=middle;resizable=0;points=[];fontColor=#000000;" vertex="1" connectable="0" parent="11">
                    <mxGeometry x="-0.2425" relative="1" as="geometry">
                        <mxPoint x="8" y="-10" as="offset"/>
                    </mxGeometry>
                </mxCell>
                <mxCell id="15" value="" style="shape=actor;whiteSpace=wrap;html=1;fillColor=none;strokeColor=#000000;" vertex="1" parent="1">
                    <mxGeometry x="60" y="265" width="60" height="70" as="geometry"/>
                </mxCell>
                <mxCell id="16" value="" style="shape=actor;whiteSpace=wrap;html=1;fillColor=none;strokeColor=#000000;" vertex="1" parent="1">
                    <mxGeometry x="60" y="265" width="60" height="70" as="geometry"/>
                </mxCell>
                <mxCell id="17" value="" style="whiteSpace=wrap;html=1;strokeColor=#001DBC;fillColor=none;fontColor=#ffffff;dashed=1;" vertex="1" parent="1">
                    <mxGeometry x="160" y="160" width="520" height="320" as="geometry"/>
                </mxCell>
                <mxCell id="18" value="" style="shape=actor;whiteSpace=wrap;html=1;fillColor=none;strokeColor=#000000;" vertex="1" parent="1">
                    <mxGeometry x="60" y="265" width="60" height="70" as="geometry"/>
                </mxCell>
            </root>
        </mxGraphModel>
    </diagram>
</mxfile>